
            <svg xmlns="http://www.w3.org/2000/svg">
                <filter id="grayscale">
                    <feColorMatrix type="saturate" values="0"/>
                </filter>
                <g filter="url(#grayscale)">
                    <svg xmlns="http://www.w3.org/2000/svg" viewBox="-12.009999999999998 162 599.01 251"> <svg xmlns="http://www.w3.org/2000/svg" viewBox="0.0018079876899719238 -0.000008250474820670206 154.53819274902344 208.4199981689453" height="111" width="82" y="232" x="57" preserveAspectRatio="xMinYMin" style="overflow: visible;"><path id="BG" d="M50.37,65.24h0A46.14,46.14,0,0,1,50.37,0h0L83,32.62Z" style="fill: #00aefb; fill-opacity: 1;"></path><path id="BG" d="M86.36,101.07h0a46.14,46.14,0,0,1,0-65.24h0L119,68.45Z" style="fill: #00aefb; fill-opacity: 1;"></path><path id="BG" d="M13.54,102h0a46.12,46.12,0,0,1,0-65.24l.71-.67L46.87,68.71Z" style="fill: #00aefb; fill-opacity: 1;"></path><path id="BG" d="M121.92,136.83h0a46.14,46.14,0,0,1,0-65.24h0l32.62,32.62Z" style="fill: #00aefb; fill-opacity: 1;"></path><path id="BG" d="M50.37,143.18h0a46.14,46.14,0,0,0,0,65.24h0L83,175.8Z" style="fill: #00aefb; fill-opacity: 1;"></path><path id="BG" d="M13.51,106.39h0a46.14,46.14,0,0,0,0,65.24l.71.62,32.62-32.62Z" style="fill: #00aefb; fill-opacity: 1;"></path><path id="BG" d="M86.4,107h0a46.12,46.12,0,0,0,0,65.24h0L119,139.63Z" style="fill: #00aefb; fill-opacity: 1;"></path></svg> <svg y="319" viewBox="0.27000001072883606 4.050000190734863 351.3500061035156 14.619999885559082" x="165" height="14" width="351" xmlns="http://www.w3.org/2000/svg" style="overflow: visible;"><g fill="#545454" fill-opacity="1" style=""><path d="M10.82 4.14L10.82 5.92L6.57 5.92L6.57 16.92L4.54 16.92L4.54 5.92L0.27 5.92L0.27 4.14L10.82 4.14ZM20.50 17.01L20.50 17.01Q19.11 17.01 17.99 16.47Q16.88 15.93 16.07 15.00Q15.26 14.08 14.82 12.92Q14.38 11.75 14.38 10.53L14.38 10.53Q14.38 9.25 14.84 8.09Q15.31 6.93 16.14 6.02Q16.97 5.11 18.09 4.58Q19.22 4.05 20.53 4.05L20.53 4.05Q21.90 4.05 23.03 4.61Q24.15 5.17 24.95 6.10Q25.75 7.04 26.19 8.19Q26.63 9.34 26.63 10.55L26.63 10.55Q26.63 11.83 26.18 12.99Q25.72 14.15 24.89 15.06Q24.06 15.97 22.94 16.49Q21.81 17.01 20.50 17.01ZM16.43 10.53L16.43 10.53Q16.43 11.43 16.72 12.28Q17.00 13.12 17.54 13.78Q18.07 14.44 18.82 14.81Q19.58 15.19 20.51 15.19L20.51 15.19Q21.49 15.19 22.24 14.80Q23.00 14.40 23.51 13.73Q24.02 13.05 24.29 12.21Q24.56 11.38 24.56 10.53L24.56 10.53Q24.56 9.63 24.29 8.79Q24.01 7.96 23.47 7.30Q22.93 6.64 22.18 6.26Q21.43 5.89 20.51 5.89L20.51 5.89Q19.54 5.89 18.79 6.28Q18.03 6.68 17.51 7.34Q16.99 8.01 16.71 8.84Q16.43 9.67 16.43 10.53ZM36.94 17.01L36.94 17.01Q35.68 17.01 34.58 16.49Q33.49 15.97 32.67 15.05Q31.85 14.13 31.39 12.96Q30.93 11.79 30.93 10.48L30.93 10.48Q30.93 9.16 31.39 8.01Q31.85 6.86 32.67 5.96Q33.49 5.06 34.59 4.55Q35.70 4.05 37.01 4.05L37.01 4.05Q38.83 4.05 40.08 4.81Q41.33 5.58 41.96 6.84L41.96 6.84L40.42 7.96Q39.91 6.91 38.99 6.39Q38.06 5.87 36.96 5.87L36.96 5.87Q36.06 5.87 35.32 6.25Q34.58 6.62 34.05 7.28Q33.52 7.94 33.25 8.78Q32.98 9.61 32.98 10.53L32.98 10.53Q32.98 11.50 33.29 12.35Q33.59 13.19 34.15 13.83Q34.71 14.47 35.47 14.83Q36.22 15.19 37.10 15.19L37.10 15.19Q38.15 15.19 39.09 14.66Q40.04 14.13 40.87 13.07L40.87 13.07L40.87 15.12Q39.19 17.01 36.94 17.01ZM40.67 16.92L40.67 11.95L37.99 11.95L37.99 10.46L42.36 10.46L42.36 16.92L40.67 16.92ZM49.68 15.14L56.43 15.14L56.43 16.92L47.66 16.92L47.66 4.14L56.27 4.14L56.27 5.92L49.68 5.92L49.68 9.56L55.39 9.56L55.39 11.23L49.68 11.23L49.68 15.14ZM70.90 4.14L70.90 5.92L66.65 5.92L66.65 16.92L64.61 16.92L64.61 5.92L60.35 5.92L60.35 4.14L70.90 4.14ZM84.07 4.14L86.10 4.14L86.10 16.92L84.07 16.92L84.07 11.29L77.62 11.29L77.62 16.92L75.61 16.92L75.61 4.14L77.62 4.14L77.62 9.49L84.07 9.49L84.07 4.14ZM94.00 15.14L100.75 15.14L100.75 16.92L91.98 16.92L91.98 4.14L100.58 4.14L100.58 5.92L94.00 5.92L94.00 9.56L99.70 9.56L99.70 11.23L94.00 11.23L94.00 15.14ZM107.85 16.92L105.83 16.92L105.83 4.14L111.40 4.14Q112.26 4.14 112.98 4.50Q113.70 4.86 114.23 5.45Q114.76 6.05 115.06 6.79Q115.36 7.52 115.36 8.30L115.36 8.30Q115.36 9.14 115.05 9.92Q114.74 10.69 114.18 11.25Q113.61 11.81 112.85 12.06L112.85 12.06L115.86 16.92L113.59 16.92L110.82 12.47L107.85 12.47L107.85 16.92ZM107.85 5.92L107.85 10.69L111.38 10.69Q111.94 10.69 112.37 10.37Q112.80 10.04 113.05 9.50Q113.30 8.95 113.30 8.30L113.30 8.30Q113.30 7.63 113.02 7.10Q112.73 6.57 112.27 6.25Q111.81 5.92 111.27 5.92L111.27 5.92L107.85 5.92ZM121.54 18.67L120.61 18.67L121.04 16.81L120.39 16.81L120.39 14.62L122.17 14.62L122.17 16.81L121.54 18.67ZM145.20 13.63L145.20 13.63Q145.20 14.65 144.67 15.39Q144.14 16.13 143.24 16.52Q142.34 16.92 141.26 16.92L141.26 16.92L135.16 16.92L135.16 4.14L141.74 4.14Q142.64 4.14 143.30 4.62Q143.96 5.09 144.31 5.84Q144.66 6.59 144.66 7.40L144.66 7.40Q144.66 8.33 144.18 9.15Q143.71 9.97 142.82 10.37L142.82 10.37Q143.92 10.69 144.56 11.55Q145.20 12.40 145.20 13.63ZM143.13 13.25L143.13 13.25Q143.13 12.71 142.90 12.27Q142.68 11.83 142.29 11.55Q141.91 11.27 141.38 11.27L141.38 11.27L137.17 11.27L137.17 15.17L141.26 15.17Q141.80 15.17 142.22 14.91Q142.64 14.65 142.89 14.21Q143.13 13.77 143.13 13.25ZM140.99 5.89L137.17 5.89L137.17 9.65L140.88 9.65Q141.38 9.65 141.78 9.41Q142.18 9.16 142.41 8.74Q142.64 8.32 142.64 7.78L142.64 7.78Q142.64 7.22 142.43 6.79Q142.21 6.37 141.84 6.13Q141.47 5.89 140.99 5.89L140.99 5.89ZM152.32 15.14L159.07 15.14L159.07 16.92L150.31 16.92L150.31 4.14L158.91 4.14L158.91 5.92L152.32 5.92L152.32 9.56L158.03 9.56L158.03 11.23L152.32 11.23L152.32 15.14ZM173.54 4.14L173.54 5.92L169.29 5.92L169.29 16.92L167.26 16.92L167.26 5.92L162.99 5.92L162.99 4.14L173.54 4.14ZM187.63 4.14L187.63 5.92L183.38 5.92L183.38 16.92L181.34 16.92L181.34 5.92L177.08 5.92L177.08 4.14L187.63 4.14ZM194.35 15.14L201.10 15.14L201.10 16.92L192.34 16.92L192.34 4.14L200.94 4.14L200.94 5.92L194.35 5.92L194.35 9.56L200.06 9.56L200.06 11.23L194.35 11.23L194.35 15.14ZM208.21 16.92L206.19 16.92L206.19 4.14L211.75 4.14Q212.62 4.14 213.34 4.50Q214.06 4.86 214.59 5.45Q215.12 6.05 215.41 6.79Q215.71 7.52 215.71 8.30L215.71 8.30Q215.71 9.14 215.41 9.92Q215.10 10.69 214.53 11.25Q213.97 11.81 213.21 12.06L213.21 12.06L216.22 16.92L213.95 16.92L211.18 12.47L208.21 12.47L208.21 16.92ZM208.21 5.92L208.21 10.69L211.73 10.69Q212.29 10.69 212.72 10.37Q213.16 10.04 213.41 9.50Q213.66 8.95 213.66 8.30L213.66 8.30Q213.66 7.63 213.37 7.10Q213.08 6.57 212.63 6.25Q212.17 5.92 211.63 5.92L211.63 5.92L208.21 5.92ZM221.90 18.67L220.96 18.67L221.39 16.81L220.75 16.81L220.75 14.62L222.53 14.62L222.53 16.81L221.90 18.67ZM243.99 5.49L243.07 7.15Q242.89 6.95 242.55 6.72Q242.21 6.50 241.74 6.30Q241.27 6.10 240.73 5.98Q240.19 5.85 239.62 5.85L239.62 5.85Q238.36 5.85 237.74 6.32Q237.13 6.79 237.13 7.61L237.13 7.61Q237.13 8.23 237.47 8.58Q237.82 8.93 238.52 9.16Q239.22 9.40 240.28 9.67L240.28 9.67Q241.58 9.97 242.53 10.40Q243.49 10.82 243.99 11.52Q244.49 12.22 244.49 13.37L244.49 13.37Q244.49 14.35 244.13 15.05Q243.77 15.75 243.13 16.19Q242.48 16.63 241.63 16.84Q240.79 17.05 239.81 17.05L239.81 17.05Q238.86 17.05 237.91 16.85Q236.97 16.65 236.12 16.26Q235.26 15.88 234.54 15.32L234.54 15.32L235.46 13.59Q235.69 13.82 236.13 14.10Q236.57 14.38 237.16 14.63Q237.74 14.89 238.44 15.06Q239.13 15.23 239.85 15.23L239.85 15.23Q241.06 15.23 241.69 14.81Q242.33 14.38 242.33 13.59L242.33 13.59Q242.33 12.94 241.92 12.56Q241.51 12.17 240.71 11.90Q239.92 11.63 238.82 11.36L238.82 11.36Q237.56 11.02 236.72 10.61Q235.87 10.21 235.45 9.57Q235.03 8.93 235.03 7.94L235.03 7.94Q235.03 6.68 235.64 5.80Q236.25 4.93 237.30 4.49Q238.36 4.05 239.67 4.05L239.67 4.05Q240.53 4.05 241.31 4.24Q242.08 4.43 242.76 4.75Q243.43 5.08 243.99 5.49L243.99 5.49ZM258.89 4.14L258.89 5.92L254.64 5.92L254.64 16.92L252.61 16.92L252.61 5.92L248.34 5.92L248.34 4.14L258.89 4.14ZM265.61 16.92L263.60 16.92L263.60 4.14L269.16 4.14Q270.02 4.14 270.74 4.50Q271.46 4.86 272.00 5.45Q272.53 6.05 272.82 6.79Q273.12 7.52 273.12 8.30L273.12 8.30Q273.12 9.14 272.81 9.92Q272.51 10.69 271.94 11.25Q271.37 11.81 270.62 12.06L270.62 12.06L273.62 16.92L271.36 16.92L268.58 12.47L265.61 12.47L265.61 16.92ZM265.61 5.92L265.61 10.69L269.14 10.69Q269.70 10.69 270.13 10.37Q270.56 10.04 270.82 9.50Q271.07 8.95 271.07 8.30L271.07 8.30Q271.07 7.63 270.78 7.10Q270.49 6.57 270.03 6.25Q269.57 5.92 269.03 5.92L269.03 5.92L265.61 5.92ZM283.77 17.01L283.77 17.01Q282.38 17.01 281.27 16.47Q280.15 15.93 279.34 15.00Q278.53 14.08 278.09 12.92Q277.65 11.75 277.65 10.53L277.65 10.53Q277.65 9.25 278.12 8.09Q278.59 6.93 279.41 6.02Q280.24 5.11 281.37 4.58Q282.49 4.05 283.81 4.05L283.81 4.05Q285.17 4.05 286.30 4.61Q287.42 5.17 288.23 6.10Q289.03 7.04 289.47 8.19Q289.91 9.34 289.91 10.55L289.91 10.55Q289.91 11.83 289.45 12.99Q288.99 14.15 288.16 15.06Q287.33 15.97 286.21 16.49Q285.08 17.01 283.77 17.01ZM279.70 10.53L279.70 10.53Q279.70 11.43 279.99 12.28Q280.28 13.12 280.81 13.78Q281.34 14.44 282.10 14.81Q282.85 15.19 283.79 15.19L283.79 15.19Q284.76 15.19 285.52 14.80Q286.27 14.40 286.79 13.73Q287.30 13.05 287.57 12.21Q287.84 11.38 287.84 10.53L287.84 10.53Q287.84 9.63 287.56 8.79Q287.28 7.96 286.74 7.30Q286.20 6.64 285.45 6.26Q284.71 5.89 283.79 5.89L283.79 5.89Q282.82 5.89 282.06 6.28Q281.30 6.68 280.78 7.34Q280.26 8.01 279.98 8.84Q279.70 9.67 279.70 10.53ZM304.16 16.92L297.01 7.88L297.01 16.92L295.00 16.92L295.00 4.14L296.65 4.14L303.89 13.37L303.89 4.16L305.92 4.16L305.92 16.92L304.16 16.92ZM317.02 17.01L317.02 17.01Q315.76 17.01 314.66 16.49Q313.57 15.97 312.75 15.05Q311.93 14.13 311.47 12.96Q311.01 11.79 311.01 10.48L311.01 10.48Q311.01 9.16 311.47 8.01Q311.93 6.86 312.75 5.96Q313.57 5.06 314.67 4.55Q315.78 4.05 317.09 4.05L317.09 4.05Q318.91 4.05 320.16 4.81Q321.41 5.58 322.04 6.84L322.04 6.84L320.50 7.96Q319.99 6.91 319.06 6.39Q318.14 5.87 317.04 5.87L317.04 5.87Q316.14 5.87 315.40 6.25Q314.66 6.62 314.13 7.28Q313.60 7.94 313.33 8.78Q313.06 9.61 313.06 10.53L313.06 10.53Q313.06 11.50 313.37 12.35Q313.67 13.19 314.23 13.83Q314.79 14.47 315.55 14.83Q316.30 15.19 317.18 15.19L317.18 15.19Q318.23 15.19 319.17 14.66Q320.12 14.13 320.95 13.07L320.95 13.07L320.95 15.12Q319.27 17.01 317.02 17.01ZM320.75 16.92L320.75 11.95L318.07 11.95L318.07 10.46L322.44 10.46L322.44 16.92L320.75 16.92ZM329.76 15.14L336.51 15.14L336.51 16.92L327.74 16.92L327.74 4.14L336.35 4.14L336.35 5.92L329.76 5.92L329.76 9.56L335.47 9.56L335.47 11.23L329.76 11.23L329.76 15.14ZM343.61 16.92L341.60 16.92L341.60 4.14L347.16 4.14Q348.02 4.14 348.74 4.50Q349.46 4.86 350.00 5.45Q350.53 6.05 350.82 6.79Q351.12 7.52 351.12 8.30L351.12 8.30Q351.12 9.14 350.81 9.92Q350.51 10.69 349.94 11.25Q349.37 11.81 348.62 12.06L348.62 12.06L351.62 16.92L349.36 16.92L346.58 12.47L343.61 12.47L343.61 16.92ZM343.61 5.92L343.61 10.69L347.14 10.69Q347.70 10.69 348.13 10.37Q348.56 10.04 348.82 9.50Q349.07 8.95 349.07 8.30L349.07 8.30Q349.07 7.63 348.78 7.10Q348.49 6.57 348.03 6.25Q347.57 5.92 347.03 5.92L347.03 5.92L343.61 5.92Z" transform="translate(0, 0)"></path></g></svg> <svg y="265" viewBox="4.570000171661377 14.079999923706055 340.5199890136719 39.81999969482422" x="164" height="39" width="340" xmlns="http://www.w3.org/2000/svg" style="overflow: visible;"><g fill="#545454" fill-opacity="1" style=""><path d="M30.91 53.24L18.59 38.12L13.42 43.51L13.42 53.24L4.57 53.24L4.57 14.74L13.42 14.74L13.42 32.73L30.47 14.74L40.37 14.74L24.42 31.90L41.30 53.24L30.91 53.24ZM54.94 23.21Q61.81 23.21 65.50 26.48Q69.18 29.76 69.18 36.36L69.18 36.36L69.18 53.24L61.15 53.24L61.15 49.55Q58.73 53.68 52.13 53.68L52.13 53.68Q48.72 53.68 46.22 52.52Q43.72 51.37 42.40 49.34Q41.08 47.30 41.08 44.72L41.08 44.72Q41.08 40.59 44.18 38.23Q47.29 35.86 53.78 35.86L53.78 35.86L60.60 35.86Q60.60 33.06 58.90 31.54Q57.19 30.03 53.78 30.03L53.78 30.03Q51.42 30.03 49.13 30.77Q46.85 31.52 45.26 32.78L45.26 32.78L42.18 26.79Q44.60 25.08 47.98 24.15Q51.36 23.21 54.94 23.21L54.94 23.21ZM54.28 47.91Q56.48 47.91 58.18 46.89Q59.89 45.87 60.60 43.89L60.60 43.89L60.60 40.87L54.72 40.87Q49.44 40.87 49.44 44.33L49.44 44.33Q49.44 45.98 50.73 46.94Q52.02 47.91 54.28 47.91L54.28 47.91ZM84.13 27.56Q85.67 25.41 88.28 24.31Q90.90 23.21 94.31 23.21L94.31 23.21L94.31 31.13Q92.88 31.02 92.38 31.02L92.38 31.02Q88.70 31.02 86.61 33.08Q84.52 35.15 84.52 39.27L84.52 39.27L84.52 53.24L75.94 53.24L75.94 23.65L84.13 23.65L84.13 27.56ZM136.31 23.21Q141.87 23.21 145.14 26.48Q148.42 29.76 148.42 36.30L148.42 36.30L148.42 53.24L139.84 53.24L139.84 37.62Q139.84 34.10 138.38 32.37Q136.92 30.64 134.23 30.64L134.23 30.64Q131.20 30.64 129.44 32.59Q127.68 34.54 127.68 38.39L127.68 38.39L127.68 53.24L119.10 53.24L119.10 37.62Q119.10 30.64 113.49 30.64L113.49 30.64Q110.52 30.64 108.76 32.59Q107.00 34.54 107.00 38.39L107.00 38.39L107.00 53.24L98.42 53.24L98.42 23.65L106.62 23.65L106.62 27.06Q108.27 25.19 110.66 24.20Q113.05 23.21 115.91 23.21L115.91 23.21Q119.05 23.21 121.58 24.45Q124.11 25.69 125.65 28.05L125.65 28.05Q127.46 25.74 130.24 24.48Q133.02 23.21 136.31 23.21L136.31 23.21ZM193.01 23.21Q198.56 23.21 201.84 26.48Q205.11 29.76 205.11 36.30L205.11 36.30L205.11 53.24L196.53 53.24L196.53 37.62Q196.53 34.10 195.07 32.37Q193.62 30.64 190.92 30.64L190.92 30.64Q187.90 30.64 186.13 32.59Q184.38 34.54 184.38 38.39L184.38 38.39L184.38 53.24L175.80 53.24L175.80 37.62Q175.80 30.64 170.19 30.64L170.19 30.64Q167.22 30.64 165.46 32.59Q163.69 34.54 163.69 38.39L163.69 38.39L163.69 53.24L155.12 53.24L155.12 23.65L163.31 23.65L163.31 27.06Q164.96 25.19 167.35 24.20Q169.75 23.21 172.60 23.21L172.60 23.21Q175.74 23.21 178.27 24.45Q180.80 25.69 182.34 28.05L182.34 28.05Q184.16 25.74 186.93 24.48Q189.71 23.21 193.01 23.21L193.01 23.21ZM223.75 23.21Q230.62 23.21 234.31 26.48Q237.99 29.76 237.99 36.36L237.99 36.36L237.99 53.24L229.96 53.24L229.96 49.55Q227.54 53.68 220.94 53.68L220.94 53.68Q217.53 53.68 215.03 52.52Q212.53 51.37 211.20 49.34Q209.88 47.30 209.88 44.72L209.88 44.72Q209.88 40.59 212.99 38.23Q216.10 35.86 222.59 35.86L222.59 35.86L229.41 35.86Q229.41 33.06 227.70 31.54Q226 30.03 222.59 30.03L222.59 30.03Q220.22 30.03 217.94 30.77Q215.66 31.52 214.06 32.78L214.06 32.78L210.98 26.79Q213.41 25.08 216.79 24.15Q220.17 23.21 223.75 23.21L223.75 23.21ZM223.08 47.91Q225.28 47.91 226.99 46.89Q228.69 45.87 229.41 43.89L229.41 43.89L229.41 40.87L223.53 40.87Q218.25 40.87 218.25 44.33L218.25 44.33Q218.25 45.98 219.54 46.94Q220.83 47.91 223.08 47.91L223.08 47.91ZM259.92 53.24L259.92 14.74L268.83 14.74L268.83 53.24L259.92 53.24ZM295.38 53.90Q289.50 53.90 284.74 51.34Q279.98 48.79 277.26 44.25Q274.54 39.71 274.54 33.99L274.54 33.99Q274.54 28.27 277.26 23.73Q279.98 19.20 284.74 16.64Q289.50 14.08 295.44 14.08L295.44 14.08Q300.44 14.08 304.48 15.84Q308.53 17.60 311.28 20.90L311.28 20.90L305.56 26.18Q301.65 21.67 295.88 21.67L295.88 21.67Q292.30 21.67 289.50 23.24Q286.69 24.81 285.12 27.61Q283.56 30.42 283.56 33.99L283.56 33.99Q283.56 37.56 285.12 40.37Q286.69 43.18 289.50 44.74Q292.30 46.31 295.88 46.31L295.88 46.31Q301.65 46.31 305.56 41.75L305.56 41.75L311.28 47.03Q308.53 50.38 304.46 52.14Q300.39 53.90 295.38 53.90L295.38 53.90ZM323.86 53.24L323.86 22.00L311.54 22.00L311.54 14.74L345.09 14.74L345.09 22.00L332.77 22.00L332.77 53.24L323.86 53.24Z" transform="translate(0, 0)"></path></g></svg></svg>
                </g>
            </svg>
        